<svg width="64" height="64" viewBox="0 0 64 64" fill="none" xmlns="http://www.w3.org/2000/svg">
<rect width="64" height="64" rx="4" fill="#FF80EB"/>
<path d="M41.8434 42.722C41.5984 42.722 41.3549 42.641 41.1554 42.4835L33.3349 36.3425C33.0664 36.1315 32.9094 35.809 32.9094 35.4675V25.2685C32.9094 24.9265 33.0659 24.604 33.3344 24.3935L41.1549 18.251C41.4904 17.9885 41.9459 17.939 42.3299 18.1255C42.7129 18.3115 42.9559 18.7 42.9559 19.1265V41.609C42.9559 42.035 42.7129 42.424 42.3299 42.61C42.1749 42.685 42.0084 42.722 41.8434 42.722ZM35.1354 34.926L40.7299 39.3195V21.416L35.1354 25.81V34.926Z" fill="#A30089"/>
<path d="M34.0225 36.5535H22.186C18.775 36.5535 16 33.779 16 30.3675C16 26.957 18.775 24.182 22.186 24.182H34.0225C34.637 24.182 35.1355 24.68 35.1355 25.2955V35.4405C35.1355 36.055 34.637 36.5535 34.0225 36.5535ZM22.186 26.408C20.0025 26.408 18.226 28.184 18.226 30.3675C18.226 32.551 20.0025 34.3275 22.186 34.3275H32.9095V26.408H22.186Z" fill="#A30089"/>
<path d="M24.5919 45.987C23.8659 45.987 23.1549 45.7765 22.5324 45.37C21.6864 44.818 21.1059 43.969 20.8979 42.9815L19.2904 35.3385C19.1639 34.737 19.5489 34.1465 20.1504 34.02C20.7534 33.893 21.3424 34.279 21.4689 34.88L23.0769 42.523C23.1624 42.9295 23.4009 43.2785 23.7499 43.5065C24.0974 43.733 24.5124 43.8125 24.9189 43.726C25.7569 43.5485 26.2959 42.721 26.1194 41.8835L24.8124 35.669C24.6859 35.0675 25.0714 34.4775 25.6729 34.3505C26.2749 34.2245 26.8644 34.6095 26.9909 35.211L28.2979 41.425C28.7264 43.462 27.4174 45.4715 25.3799 45.904C25.1169 45.9595 24.8529 45.987 24.5919 45.987ZM43.5659 34.802H41.8424C41.2279 34.802 40.7294 34.304 40.7294 33.6885C40.7294 33.074 41.2279 32.5755 41.8424 32.5755H43.5659C44.1554 32.5755 44.7094 32.3465 45.1249 31.9305C45.5434 31.5125 45.7739 30.9575 45.7739 30.367C45.7739 29.149 44.7834 28.159 43.5659 28.159H41.8424C41.2279 28.159 40.7294 27.6605 40.7294 27.0455C40.7294 26.4305 41.2279 25.9325 41.8424 25.9325H43.5659C46.0109 25.9325 47.9999 27.9215 47.9999 30.3665C47.9999 31.551 47.5379 32.6655 46.6989 33.5045C45.8629 34.342 44.7499 34.802 43.5659 34.802Z" fill="#A30089"/>
</svg>
