<svg width="64" height="64" viewBox="0 0 64 64" fill="none" xmlns="http://www.w3.org/2000/svg">
<rect width="64" height="64" rx="4" fill="#809CFF"/>
<path d="M44.6533 29.5867L43.32 28.8534L31.32 22.1867H31.1733C31.0916 22.1521 31.0068 22.1253 30.92 22.1067H30.6667H30.4267C30.3356 22.1254 30.2463 22.1521 30.16 22.1867H30.0133L18.0133 28.8534C17.8081 28.9696 17.6375 29.1383 17.5187 29.3421C17.4 29.5459 17.3374 29.7775 17.3374 30.0134C17.3374 30.2492 17.4 30.4809 17.5187 30.6846C17.6375 30.8884 17.8081 31.0571 18.0133 31.1734L21.3333 33.0134V39.3334C21.3333 40.3942 21.7548 41.4116 22.5049 42.1618C23.2551 42.9119 24.2725 43.3334 25.3333 43.3334H36C37.0609 43.3334 38.0783 42.9119 38.8284 42.1618C39.5786 41.4116 40 40.3942 40 39.3334V33.0134L42.6667 31.52V35.3334C42.6667 35.687 42.8071 36.0261 43.0572 36.2762C43.3072 36.5262 43.6464 36.6667 44 36.6667C44.3536 36.6667 44.6928 36.5262 44.9428 36.2762C45.1929 36.0261 45.3333 35.687 45.3333 35.3334V30.7467C45.3329 30.5104 45.2697 30.2785 45.1503 30.0747C45.0308 29.8709 44.8593 29.7025 44.6533 29.5867ZM37.3333 39.3334C37.3333 39.687 37.1929 40.0261 36.9428 40.2762C36.6928 40.5262 36.3536 40.6667 36 40.6667H25.3333C24.9797 40.6667 24.6406 40.5262 24.3905 40.2762C24.1405 40.0261 24 39.687 24 39.3334V34.4934L30.0133 37.8267L30.2133 37.9067H30.3333C30.444 37.9206 30.556 37.9206 30.6667 37.9067C30.7773 37.9206 30.8893 37.9206 31 37.9067H31.12C31.1908 37.8918 31.2585 37.8647 31.32 37.8267L37.3333 34.4934V39.3334ZM30.6667 35.1467L21.4133 30L30.6667 24.8534L39.92 30L30.6667 35.1467Z" fill="#0055A3"/>
</svg>
