<svg width="64" height="64" viewBox="0 0 64 64" fill="none" xmlns="http://www.w3.org/2000/svg">
<rect width="64" height="64" rx="4" fill="#80FFA3"/>
<path d="M27.1539 20.0031C23.2194 20.0031 20.0019 23.189 20.0019 27.1044C20.0394 28.0779 20.2015 29.1654 20.4003 30.0066H18.9961C17.6325 29.9764 17.6325 32.0371 18.9961 32.0065H21.0253C22.7777 36.5603 26.6991 41.1133 31.5092 43.8674C31.8156 44.0416 32.1911 44.0416 32.4975 43.8674C35.6775 42.0467 38.5124 39.3152 40.5811 36.3247C41.5509 34.9228 42.3472 33.464 42.9307 32.0065H45.0028C46.3664 32.0367 46.3664 29.976 45.0028 30.0066H43.5849C43.8493 28.9982 43.9857 28.0581 43.999 27.1044C43.999 23.189 40.7795 20.0031 36.845 20.0031C35.0134 20.0031 33.2915 20.6993 31.9936 21.8878C30.6967 20.7023 28.9838 20.0031 27.1539 20.0031ZM27.1539 22.005C28.7476 22.005 30.216 22.7245 31.1772 23.915C31.5501 24.377 32.2411 24.4143 32.6615 23.9951C33.9014 22.9061 35.4474 22.0277 36.845 22.005C39.6609 22.005 41.9182 24.2063 41.9912 26.9676C41.9284 28.0378 41.764 29.141 41.5088 30.0066H37.0012C36.7362 30.0046 36.4812 30.1079 36.2922 30.2938L35.2727 31.3134L33.8939 28.5596C33.5247 27.825 32.4761 27.825 32.1069 28.5596L31.103 30.5673L29.9292 27.6299C29.7762 27.247 29.404 26.9974 28.9917 27.001C28.6584 27.0043 28.3486 27.1733 28.1656 27.4521L26.4665 30.0067H22.5154C22.23 28.9422 22.0378 27.8973 22.0116 26.9228C22.1079 24.1828 24.3533 22.0051 27.1539 22.0051V22.005ZM28.7769 30.1394L30.0698 33.3717C30.3879 34.1732 31.5033 34.2233 31.892 33.4537L32.9994 31.239L34.1068 33.4537C34.4129 34.0634 35.2263 34.1944 35.7083 33.7115L37.4133 32.0065H40.7491C40.2677 33.0662 39.6578 34.1427 38.9347 35.1879C37.1565 37.7586 34.6532 40.0239 32.0034 41.6682C28.1793 39.2952 24.9801 35.5725 23.3006 32.0065H26.9977C27.3345 32.0064 27.6487 31.8367 27.8336 31.5553L28.7769 30.1394Z" fill="#00A3A3"/>
</svg>
