<svg width="48" height="50" viewBox="0 0 48 50" fill="none" xmlns="http://www.w3.org/2000/svg">
<path d="M20 5.75C19.59 5.75 19.25 5.41 19.25 5V2C19.25 1.59 19.59 1.25 20 1.25C20.41 1.25 20.75 1.59 20.75 2V5C20.75 5.41 20.41 5.75 20 5.75Z" fill="white" fill-opacity="0.98"/>
<path d="M28 5.75C27.59 5.75 27.25 5.41 27.25 5V2C27.25 1.59 27.59 1.25 28 1.25C28.41 1.25 28.75 1.59 28.75 2V5C28.75 5.41 28.41 5.75 28 5.75Z" fill="white" fill-opacity="0.98"/>
<path d="M20.5 14.5001C20.37 14.5001 20.24 14.4701 20.12 14.4201C19.99 14.3701 19.89 14.3001 19.79 14.2101C19.61 14.0201 19.5 13.7701 19.5 13.5001C19.5 13.3701 19.53 13.2401 19.58 13.1201C19.63 13.0001 19.7 12.8901 19.79 12.7901C19.89 12.7001 19.99 12.6301 20.12 12.5801C20.48 12.4301 20.93 12.5101 21.21 12.7901C21.39 12.9801 21.5 13.2401 21.5 13.5001C21.5 13.5601 21.49 13.6301 21.48 13.7001C21.47 13.7601 21.45 13.8201 21.42 13.8801C21.4 13.9401 21.37 14.0001 21.33 14.0601C21.3 14.1101 21.25 14.1601 21.21 14.2101C21.02 14.3901 20.76 14.5001 20.5 14.5001Z" fill="white" fill-opacity="0.98"/>
<path d="M24 14.4999C23.87 14.4999 23.74 14.4699 23.62 14.4199C23.49 14.3699 23.39 14.2999 23.29 14.2099C23.11 14.0199 23 13.7699 23 13.4999C23 13.3699 23.03 13.2399 23.08 13.1199C23.13 12.9999 23.2 12.8899 23.29 12.7899C23.39 12.6999 23.49 12.6299 23.62 12.5799C23.98 12.4199 24.43 12.5099 24.71 12.7899C24.89 12.9799 25 13.2399 25 13.4999C25 13.5599 24.99 13.6299 24.98 13.6999C24.97 13.7599 24.95 13.8199 24.92 13.8799C24.9 13.9399 24.87 13.9999 24.83 14.0599C24.8 14.1099 24.75 14.1599 24.71 14.2099C24.52 14.3899 24.26 14.4999 24 14.4999Z" fill="white" fill-opacity="0.98"/>
<path d="M27.5 14.4999C27.37 14.4999 27.24 14.4699 27.12 14.4199C26.99 14.3699 26.89 14.2999 26.79 14.2099C26.75 14.1599 26.71 14.1099 26.67 14.0599C26.63 13.9999 26.6 13.9399 26.58 13.8799C26.55 13.8199 26.53 13.7599 26.52 13.6999C26.51 13.6299 26.5 13.5599 26.5 13.4999C26.5 13.2399 26.61 12.9799 26.79 12.7899C26.89 12.6999 26.99 12.6299 27.12 12.5799C27.49 12.4199 27.93 12.5099 28.21 12.7899C28.39 12.9799 28.5 13.2399 28.5 13.4999C28.5 13.5599 28.49 13.6299 28.48 13.6999C28.47 13.7599 28.45 13.8199 28.42 13.8799C28.4 13.9399 28.37 13.9999 28.33 14.0599C28.3 14.1099 28.25 14.1599 28.21 14.2099C28.02 14.3899 27.76 14.4999 27.5 14.4999Z" fill="white" fill-opacity="0.98"/>
<path d="M20.5 17.9999C20.37 17.9999 20.24 17.97 20.12 17.92C20 17.87 19.89 17.7999 19.79 17.7099C19.61 17.5199 19.5 17.2599 19.5 16.9999C19.5 16.8699 19.53 16.7399 19.58 16.6199C19.63 16.4899 19.7 16.38 19.79 16.29C20.16 15.92 20.84 15.92 21.21 16.29C21.39 16.48 21.5 16.7399 21.5 16.9999C21.5 17.2599 21.39 17.5199 21.21 17.7099C21.02 17.8899 20.76 17.9999 20.5 17.9999Z" fill="white" fill-opacity="0.98"/>
<path d="M24 17.9999C23.74 17.9999 23.48 17.8899 23.29 17.7099C23.11 17.5199 23 17.2599 23 16.9999C23 16.8699 23.03 16.7399 23.08 16.6199C23.13 16.4899 23.2 16.38 23.29 16.29C23.66 15.92 24.34 15.92 24.71 16.29C24.8 16.38 24.87 16.4899 24.92 16.6199C24.97 16.7399 25 16.8699 25 16.9999C25 17.2599 24.89 17.5199 24.71 17.7099C24.52 17.8899 24.26 17.9999 24 17.9999Z" fill="white" fill-opacity="0.98"/>
<path d="M27.5 17.9999C27.24 17.9999 26.98 17.8899 26.79 17.7099C26.7 17.6199 26.63 17.5099 26.58 17.3799C26.53 17.2599 26.5 17.1299 26.5 16.9999C26.5 16.8699 26.53 16.7399 26.58 16.6199C26.63 16.4899 26.7 16.3799 26.79 16.2899C27.02 16.0599 27.37 15.9499 27.69 16.0199C27.76 16.0299 27.82 16.0499 27.88 16.0799C27.94 16.0999 28 16.1299 28.06 16.1699C28.11 16.1999 28.16 16.2499 28.21 16.2899C28.39 16.4799 28.5 16.7399 28.5 16.9999C28.5 17.2599 28.39 17.5199 28.21 17.7099C28.02 17.8899 27.76 17.9999 27.5 17.9999Z" fill="white" fill-opacity="0.98"/>
<path d="M32.5 9.83984H15.5C15.09 9.83984 14.75 9.49984 14.75 9.08984C14.75 8.67984 15.09 8.33984 15.5 8.33984H32.5C32.91 8.33984 33.25 8.67984 33.25 9.08984C33.25 9.49984 32.91 9.83984 32.5 9.83984Z" fill="white" fill-opacity="0.98"/>
<path d="M28 22.75H20C16.35 22.75 14.25 20.65 14.25 17V8.5C14.25 4.85 16.35 2.75 20 2.75H28C31.65 2.75 33.75 4.85 33.75 8.5V17C33.75 20.65 31.65 22.75 28 22.75ZM20 4.25C17.14 4.25 15.75 5.64 15.75 8.5V17C15.75 19.86 17.14 21.25 20 21.25H28C30.86 21.25 32.25 19.86 32.25 17V8.5C32.25 5.64 30.86 4.25 28 4.25H20Z" fill="white" fill-opacity="0.98"/>
<path d="M7.104 44.224C7.168 44.224 7.226 44.25 7.278 44.302L7.734 44.8C7.382 45.208 6.954 45.526 6.45 45.754C5.95 45.982 5.346 46.096 4.638 46.096C4.018 46.096 3.456 45.99 2.952 45.778C2.448 45.562 2.018 45.262 1.662 44.878C1.306 44.49 1.03 44.026 0.834 43.486C0.638 42.946 0.54 42.352 0.54 41.704C0.54 41.056 0.644 40.462 0.852 39.922C1.064 39.382 1.36 38.918 1.74 38.53C2.12 38.142 2.574 37.842 3.102 37.63C3.634 37.414 4.22 37.306 4.86 37.306C5.492 37.306 6.036 37.404 6.492 37.6C6.952 37.796 7.36 38.062 7.716 38.398L7.338 38.932C7.31 38.972 7.278 39.006 7.242 39.034C7.206 39.058 7.154 39.07 7.086 39.07C7.034 39.07 6.978 39.052 6.918 39.016C6.862 38.976 6.794 38.928 6.714 38.872C6.634 38.816 6.54 38.756 6.432 38.692C6.324 38.628 6.196 38.568 6.048 38.512C5.9 38.456 5.728 38.41 5.532 38.374C5.336 38.334 5.11 38.314 4.854 38.314C4.394 38.314 3.972 38.394 3.588 38.554C3.208 38.71 2.88 38.934 2.604 39.226C2.328 39.518 2.112 39.874 1.956 40.294C1.804 40.714 1.728 41.184 1.728 41.704C1.728 42.24 1.804 42.718 1.956 43.138C2.112 43.558 2.322 43.914 2.586 44.206C2.854 44.494 3.17 44.714 3.534 44.866C3.898 45.018 4.29 45.094 4.71 45.094C4.966 45.094 5.196 45.08 5.4 45.052C5.604 45.02 5.792 44.972 5.964 44.908C6.14 44.844 6.302 44.764 6.45 44.668C6.602 44.568 6.754 44.45 6.906 44.314C6.974 44.254 7.04 44.224 7.104 44.224ZM13.5548 46H13.0808C12.9768 46 12.8928 45.984 12.8288 45.952C12.7648 45.92 12.7228 45.852 12.7028 45.748L12.5828 45.184C12.4228 45.328 12.2668 45.458 12.1148 45.574C11.9628 45.686 11.8028 45.782 11.6348 45.862C11.4668 45.938 11.2868 45.996 11.0948 46.036C10.9068 46.076 10.6968 46.096 10.4648 46.096C10.2288 46.096 10.0068 46.064 9.79884 46C9.59484 45.932 9.41684 45.832 9.26484 45.7C9.11284 45.568 8.99084 45.402 8.89884 45.202C8.81084 44.998 8.76684 44.758 8.76684 44.482C8.76684 44.242 8.83284 44.012 8.96484 43.792C9.09684 43.568 9.30884 43.37 9.60084 43.198C9.89684 43.026 10.2828 42.886 10.7588 42.778C11.2348 42.666 11.8168 42.602 12.5048 42.586V42.112C12.5048 41.64 12.4028 41.284 12.1988 41.044C11.9988 40.8 11.7008 40.678 11.3048 40.678C11.0448 40.678 10.8248 40.712 10.6448 40.78C10.4688 40.844 10.3148 40.918 10.1828 41.002C10.0548 41.082 9.94284 41.156 9.84684 41.224C9.75484 41.288 9.66284 41.32 9.57084 41.32C9.49884 41.32 9.43484 41.302 9.37884 41.266C9.32684 41.226 9.28484 41.178 9.25284 41.122L9.06084 40.78C9.39684 40.456 9.75884 40.214 10.1468 40.054C10.5348 39.894 10.9648 39.814 11.4368 39.814C11.7768 39.814 12.0788 39.87 12.3428 39.982C12.6068 40.094 12.8288 40.25 13.0088 40.45C13.1888 40.65 13.3248 40.892 13.4168 41.176C13.5088 41.46 13.5548 41.772 13.5548 42.112V46ZM10.7828 45.346C10.9708 45.346 11.1428 45.328 11.2988 45.292C11.4548 45.252 11.6008 45.198 11.7368 45.13C11.8768 45.058 12.0088 44.972 12.1328 44.872C12.2608 44.772 12.3848 44.658 12.5048 44.53V43.264C12.0128 43.28 11.5948 43.32 11.2508 43.384C10.9068 43.444 10.6268 43.524 10.4108 43.624C10.1948 43.724 10.0368 43.842 9.93684 43.978C9.84084 44.114 9.79284 44.266 9.79284 44.434C9.79284 44.594 9.81884 44.732 9.87084 44.848C9.92284 44.964 9.99284 45.06 10.0808 45.136C10.1688 45.208 10.2728 45.262 10.3928 45.298C10.5128 45.33 10.6428 45.346 10.7828 45.346ZM16.3609 37.162V46H15.2929V37.162H16.3609ZM20.6492 39.826C21.0132 39.826 21.3492 39.888 21.6572 40.012C21.9652 40.132 22.2312 40.308 22.4552 40.54C22.6792 40.768 22.8532 41.052 22.9772 41.392C23.1052 41.728 23.1692 42.112 23.1692 42.544C23.1692 42.712 23.1512 42.824 23.1152 42.88C23.0792 42.936 23.0112 42.964 22.9112 42.964H18.8672C18.8752 43.348 18.9272 43.682 19.0232 43.966C19.1192 44.25 19.2512 44.488 19.4192 44.68C19.5872 44.868 19.7872 45.01 20.0192 45.106C20.2512 45.198 20.5112 45.244 20.7992 45.244C21.0672 45.244 21.2972 45.214 21.4892 45.154C21.6852 45.09 21.8532 45.022 21.9932 44.95C22.1332 44.878 22.2492 44.812 22.3412 44.752C22.4372 44.688 22.5192 44.656 22.5872 44.656C22.6752 44.656 22.7432 44.69 22.7912 44.758L23.0912 45.148C22.9592 45.308 22.8012 45.448 22.6172 45.568C22.4332 45.684 22.2352 45.78 22.0232 45.856C21.8152 45.932 21.5992 45.988 21.3752 46.024C21.1512 46.064 20.9292 46.084 20.7092 46.084C20.2892 46.084 19.9012 46.014 19.5452 45.874C19.1932 45.73 18.8872 45.522 18.6272 45.25C18.3712 44.974 18.1712 44.634 18.0272 44.23C17.8832 43.826 17.8112 43.362 17.8112 42.838C17.8112 42.414 17.8752 42.018 18.0032 41.65C18.1352 41.282 18.3232 40.964 18.5672 40.696C18.8112 40.424 19.1092 40.212 19.4612 40.06C19.8132 39.904 20.2092 39.826 20.6492 39.826ZM20.6732 40.612C20.1572 40.612 19.7512 40.762 19.4552 41.062C19.1592 41.358 18.9752 41.77 18.9032 42.298H22.2092C22.2092 42.05 22.1752 41.824 22.1072 41.62C22.0392 41.412 21.9392 41.234 21.8072 41.086C21.6752 40.934 21.5132 40.818 21.3212 40.738C21.1332 40.654 20.9172 40.612 20.6732 40.612ZM24.5362 46V39.922H25.1722C25.3242 39.922 25.4202 39.996 25.4602 40.144L25.5442 40.804C25.8082 40.512 26.1022 40.276 26.4262 40.096C26.7542 39.916 27.1322 39.826 27.5602 39.826C27.8922 39.826 28.1842 39.882 28.4362 39.994C28.6922 40.102 28.9042 40.258 29.0722 40.462C29.2442 40.662 29.3742 40.904 29.4622 41.188C29.5502 41.472 29.5942 41.786 29.5942 42.13V46H28.5262V42.13C28.5262 41.67 28.4202 41.314 28.2082 41.062C28.0002 40.806 27.6802 40.678 27.2482 40.678C26.9322 40.678 26.6362 40.754 26.3602 40.906C26.0882 41.058 25.8362 41.264 25.6042 41.524V46H24.5362ZM35.4821 46C35.3301 46 35.2341 45.926 35.1941 45.778L35.0981 45.04C34.8381 45.356 34.5401 45.61 34.2041 45.802C33.8721 45.99 33.4901 46.084 33.0581 46.084C32.7101 46.084 32.3941 46.018 32.1101 45.886C31.8261 45.75 31.5841 45.552 31.3841 45.292C31.1841 45.032 31.0301 44.708 30.9221 44.32C30.8141 43.932 30.7601 43.486 30.7601 42.982C30.7601 42.534 30.8201 42.118 30.9401 41.734C31.0601 41.346 31.2321 41.01 31.4561 40.726C31.6841 40.442 31.9601 40.22 32.2841 40.06C32.6081 39.896 32.9761 39.814 33.3881 39.814C33.7601 39.814 34.0781 39.878 34.3421 40.006C34.6061 40.13 34.8421 40.306 35.0501 40.534V37.162H36.1181V46H35.4821ZM33.4121 45.22C33.7601 45.22 34.0641 45.14 34.3241 44.98C34.5881 44.82 34.8301 44.594 35.0501 44.302V41.362C34.8541 41.098 34.6381 40.914 34.4021 40.81C34.1701 40.702 33.9121 40.648 33.6281 40.648C33.0601 40.648 32.6241 40.85 32.3201 41.254C32.0161 41.658 31.8641 42.234 31.8641 42.982C31.8641 43.378 31.8981 43.718 31.9661 44.002C32.0341 44.282 32.1341 44.514 32.2661 44.698C32.3981 44.878 32.5601 45.01 32.7521 45.094C32.9441 45.178 33.1641 45.22 33.4121 45.22ZM42.3713 46H41.8973C41.7933 46 41.7093 45.984 41.6453 45.952C41.5813 45.92 41.5393 45.852 41.5193 45.748L41.3993 45.184C41.2393 45.328 41.0833 45.458 40.9313 45.574C40.7793 45.686 40.6193 45.782 40.4513 45.862C40.2833 45.938 40.1033 45.996 39.9113 46.036C39.7233 46.076 39.5133 46.096 39.2813 46.096C39.0453 46.096 38.8233 46.064 38.6152 46C38.4113 45.932 38.2333 45.832 38.0813 45.7C37.9293 45.568 37.8073 45.402 37.7153 45.202C37.6273 44.998 37.5833 44.758 37.5833 44.482C37.5833 44.242 37.6493 44.012 37.7812 43.792C37.9133 43.568 38.1253 43.37 38.4173 43.198C38.7133 43.026 39.0993 42.886 39.5753 42.778C40.0513 42.666 40.6333 42.602 41.3213 42.586V42.112C41.3213 41.64 41.2193 41.284 41.0153 41.044C40.8153 40.8 40.5173 40.678 40.1213 40.678C39.8613 40.678 39.6413 40.712 39.4613 40.78C39.2853 40.844 39.1313 40.918 38.9993 41.002C38.8713 41.082 38.7593 41.156 38.6633 41.224C38.5713 41.288 38.4793 41.32 38.3873 41.32C38.3153 41.32 38.2513 41.302 38.1953 41.266C38.1433 41.226 38.1013 41.178 38.0693 41.122L37.8773 40.78C38.2133 40.456 38.5753 40.214 38.9633 40.054C39.3513 39.894 39.7813 39.814 40.2533 39.814C40.5933 39.814 40.8953 39.87 41.1593 39.982C41.4233 40.094 41.6453 40.25 41.8253 40.45C42.0053 40.65 42.1413 40.892 42.2333 41.176C42.3253 41.46 42.3713 41.772 42.3713 42.112V46ZM39.5993 45.346C39.7873 45.346 39.9593 45.328 40.1152 45.292C40.2713 45.252 40.4173 45.198 40.5533 45.13C40.6933 45.058 40.8253 44.972 40.9493 44.872C41.0773 44.772 41.2013 44.658 41.3213 44.53V43.264C40.8293 43.28 40.4113 43.32 40.0673 43.384C39.7233 43.444 39.4433 43.524 39.2273 43.624C39.0113 43.724 38.8533 43.842 38.7533 43.978C38.6573 44.114 38.6093 44.266 38.6093 44.434C38.6093 44.594 38.6353 44.732 38.6873 44.848C38.7393 44.964 38.8093 45.06 38.8973 45.136C38.9853 45.208 39.0893 45.262 39.2093 45.298C39.3293 45.33 39.4593 45.346 39.5993 45.346ZM43.9893 46V39.922H44.6013C44.7173 39.922 44.7973 39.944 44.8413 39.988C44.8853 40.032 44.9153 40.108 44.9313 40.216L45.0033 41.164C45.2113 40.74 45.4673 40.41 45.7713 40.174C46.0793 39.934 46.4393 39.814 46.8513 39.814C47.0193 39.814 47.1713 39.834 47.3073 39.874C47.4433 39.91 47.5693 39.962 47.6853 40.03L47.5473 40.828C47.5193 40.928 47.4573 40.978 47.3613 40.978C47.3053 40.978 47.2193 40.96 47.1033 40.924C46.9873 40.884 46.8253 40.864 46.6173 40.864C46.2453 40.864 45.9333 40.972 45.6813 41.188C45.4333 41.404 45.2253 41.718 45.0573 42.13V46H43.9893Z" fill="white" fill-opacity="0.98"/>
</svg>
