<svg width="48" height="50" viewBox="0 0 48 50" fill="none" xmlns="http://www.w3.org/2000/svg">
<path d="M24 12.75C20.83 12.75 18.25 10.17 18.25 7C18.25 3.83 20.83 1.25 24 1.25C27.17 1.25 29.75 3.83 29.75 7C29.75 10.17 27.17 12.75 24 12.75ZM24 2.75C21.66 2.75 19.75 4.66 19.75 7C19.75 9.34 21.66 11.25 24 11.25C26.34 11.25 28.25 9.34 28.25 7C28.25 4.66 26.34 2.75 24 2.75Z" fill="white" fill-opacity="0.98"/>
<path d="M32.5901 22.75C32.1801 22.75 31.8401 22.41 31.8401 22C31.8401 18.55 28.3202 15.75 24.0002 15.75C19.6802 15.75 16.1602 18.55 16.1602 22C16.1602 22.41 15.8202 22.75 15.4102 22.75C15.0002 22.75 14.6602 22.41 14.6602 22C14.6602 17.73 18.8502 14.25 24.0002 14.25C29.1502 14.25 33.3401 17.73 33.3401 22C33.3401 22.41 33.0001 22.75 32.5901 22.75Z" fill="white" fill-opacity="0.98"/>
<path d="M8.322 42.784V46H7.164V37.402H9.702C10.246 37.402 10.718 37.466 11.118 37.594C11.522 37.718 11.856 37.896 12.12 38.128C12.384 38.36 12.58 38.64 12.708 38.968C12.84 39.296 12.906 39.662 12.906 40.066C12.906 40.466 12.836 40.832 12.696 41.164C12.556 41.496 12.35 41.782 12.078 42.022C11.81 42.262 11.476 42.45 11.076 42.586C10.676 42.718 10.218 42.784 9.702 42.784H8.322ZM8.322 41.86H9.702C10.034 41.86 10.326 41.816 10.578 41.728C10.834 41.64 11.048 41.518 11.22 41.362C11.392 41.202 11.522 41.012 11.61 40.792C11.698 40.572 11.742 40.33 11.742 40.066C11.742 39.518 11.572 39.09 11.232 38.782C10.896 38.474 10.386 38.32 9.702 38.32H8.322V41.86ZM14.2119 46V39.922H14.8239C14.9399 39.922 15.0199 39.944 15.0639 39.988C15.1079 40.032 15.1379 40.108 15.1539 40.216L15.2259 41.164C15.4339 40.74 15.6899 40.41 15.9939 40.174C16.3019 39.934 16.6619 39.814 17.0739 39.814C17.2419 39.814 17.3939 39.834 17.5299 39.874C17.6659 39.91 17.7919 39.962 17.9079 40.03L17.7699 40.828C17.7419 40.928 17.6799 40.978 17.5839 40.978C17.5279 40.978 17.4419 40.96 17.3259 40.924C17.2099 40.884 17.0479 40.864 16.8399 40.864C16.4679 40.864 16.1559 40.972 15.9039 41.188C15.6559 41.404 15.4479 41.718 15.2799 42.13V46H14.2119ZM21.5118 39.826C21.9558 39.826 22.3558 39.9 22.7118 40.048C23.0718 40.196 23.3758 40.406 23.6238 40.678C23.8758 40.95 24.0678 41.28 24.1998 41.668C24.3358 42.052 24.4038 42.482 24.4038 42.958C24.4038 43.438 24.3358 43.87 24.1998 44.254C24.0678 44.638 23.8758 44.966 23.6238 45.238C23.3758 45.51 23.0718 45.72 22.7118 45.868C22.3558 46.012 21.9558 46.084 21.5118 46.084C21.0678 46.084 20.6658 46.012 20.3058 45.868C19.9498 45.72 19.6458 45.51 19.3938 45.238C19.1418 44.966 18.9478 44.638 18.8118 44.254C18.6758 43.87 18.6078 43.438 18.6078 42.958C18.6078 42.482 18.6758 42.052 18.8118 41.668C18.9478 41.28 19.1418 40.95 19.3938 40.678C19.6458 40.406 19.9498 40.196 20.3058 40.048C20.6658 39.9 21.0678 39.826 21.5118 39.826ZM21.5118 45.25C22.1118 45.25 22.5598 45.05 22.8558 44.65C23.1518 44.246 23.2998 43.684 23.2998 42.964C23.2998 42.24 23.1518 41.676 22.8558 41.272C22.5598 40.868 22.1118 40.666 21.5118 40.666C21.2078 40.666 20.9438 40.718 20.7198 40.822C20.4958 40.926 20.3078 41.076 20.1558 41.272C20.0078 41.468 19.8958 41.71 19.8198 41.998C19.7478 42.282 19.7118 42.604 19.7118 42.964C19.7118 43.324 19.7478 43.646 19.8198 43.93C19.8958 44.214 20.0078 44.454 20.1558 44.65C20.3078 44.842 20.4958 44.99 20.7198 45.094C20.9438 45.198 21.2078 45.25 21.5118 45.25ZM25.9598 46V40.834L25.2878 40.756C25.2038 40.736 25.1338 40.706 25.0778 40.666C25.0258 40.622 24.9998 40.56 24.9998 40.48V40.042H25.9598V39.706C25.9598 39.334 26.0178 38.994 26.1338 38.686C26.2498 38.374 26.4238 38.106 26.6558 37.882C26.8878 37.658 27.1758 37.484 27.5198 37.36C27.8678 37.236 28.2718 37.174 28.7318 37.174C28.8838 37.174 29.0378 37.184 29.1938 37.204C29.3538 37.224 29.4918 37.254 29.6078 37.294L29.5718 37.852C29.5638 37.904 29.5398 37.938 29.4998 37.954C29.4598 37.966 29.4018 37.972 29.3258 37.972C29.2818 37.972 29.2358 37.972 29.1878 37.972C29.1398 37.968 29.0858 37.966 29.0258 37.966C28.3178 37.966 27.8018 38.114 27.4778 38.41C27.1578 38.702 26.9978 39.144 26.9978 39.736V40.042H30.6698V46H29.6018V40.816H27.0338V46H25.9598ZM33.7515 37.162V46H32.6835V37.162H33.7515ZM38.0398 39.826C38.4038 39.826 38.7398 39.888 39.0478 40.012C39.3558 40.132 39.6218 40.308 39.8458 40.54C40.0698 40.768 40.2438 41.052 40.3678 41.392C40.4958 41.728 40.5598 42.112 40.5598 42.544C40.5598 42.712 40.5418 42.824 40.5058 42.88C40.4698 42.936 40.4018 42.964 40.3018 42.964H36.2578C36.2658 43.348 36.3178 43.682 36.4138 43.966C36.5098 44.25 36.6418 44.488 36.8098 44.68C36.9778 44.868 37.1778 45.01 37.4098 45.106C37.6418 45.198 37.9018 45.244 38.1898 45.244C38.4578 45.244 38.6878 45.214 38.8798 45.154C39.0758 45.09 39.2438 45.022 39.3838 44.95C39.5238 44.878 39.6398 44.812 39.7318 44.752C39.8278 44.688 39.9098 44.656 39.9778 44.656C40.0658 44.656 40.1338 44.69 40.1818 44.758L40.4818 45.148C40.3498 45.308 40.1918 45.448 40.0078 45.568C39.8238 45.684 39.6258 45.78 39.4138 45.856C39.2058 45.932 38.9898 45.988 38.7658 46.024C38.5418 46.064 38.3198 46.084 38.0998 46.084C37.6798 46.084 37.2918 46.014 36.9358 45.874C36.5838 45.73 36.2778 45.522 36.0178 45.25C35.7618 44.974 35.5618 44.634 35.4178 44.23C35.2738 43.826 35.2018 43.362 35.2018 42.838C35.2018 42.414 35.2658 42.018 35.3938 41.65C35.5258 41.282 35.7138 40.964 35.9578 40.696C36.2018 40.424 36.4998 40.212 36.8518 40.06C37.2038 39.904 37.5998 39.826 38.0398 39.826ZM38.0638 40.612C37.5478 40.612 37.1418 40.762 36.8458 41.062C36.5498 41.358 36.3658 41.77 36.2938 42.298H39.5998C39.5998 42.05 39.5658 41.824 39.4978 41.62C39.4298 41.412 39.3298 41.234 39.1978 41.086C39.0658 40.934 38.9038 40.818 38.7118 40.738C38.5238 40.654 38.3078 40.612 38.0638 40.612Z" fill="white" fill-opacity="0.98"/>
</svg>
