<svg width="64" height="64" viewBox="0 0 64 64" fill="none" xmlns="http://www.w3.org/2000/svg">
<rect width="64" height="64" rx="4" fill="#FF9680"/>
<path d="M28.0033 18.996C26.3587 18.996 24.9976 20.3571 24.9976 22.0017V22.9977H20.0018C18.3566 22.9977 17.0039 24.3563 17.0039 26.0015V28.0014C17.0039 29.1372 17.6463 30.1747 18.6581 30.6809C18.7709 30.7373 18.8832 30.7944 18.996 30.8508V41.9967C18.996 43.6413 20.3571 45.0024 22.0017 45.0024H41.9967C43.6414 45.0024 45.0024 43.6413 45.0024 41.9967V30.8508C45.1157 30.7942 45.229 30.7376 45.3423 30.6809C46.3542 30.1747 46.9945 29.1372 46.9945 28.0014V26.0015C46.9945 24.3563 45.6438 22.9977 43.9986 22.9977H39.0008V22.0017C39.0008 20.3571 37.6417 18.996 35.9971 18.996H28.0033ZM28.0033 20.9959H35.9971C36.5684 20.9959 37.0009 21.4304 37.0009 22.0017V22.9977H26.9975V22.0017C26.9975 21.4304 27.432 20.9959 28.0033 20.9959ZM20.0018 24.9976H43.9986C44.5631 24.9976 45.0024 25.4369 45.0024 26.0015V28.0014C45.0024 28.3795 44.784 28.7248 44.4419 28.8958C40.4437 30.8962 36.4446 32.8942 32.4465 34.8955C32.1623 35.0376 31.8361 35.0376 31.552 34.8955C27.5538 32.8942 23.5567 30.8962 19.5585 28.8958C19.2163 28.7246 18.996 28.3795 18.996 28.0014V26.0015C18.996 25.4369 19.4373 24.9976 20.0018 24.9976ZM31.9992 30.9993C31.447 30.9993 30.9993 31.4469 30.9993 31.9992C30.9993 32.5514 31.447 32.9992 31.9992 32.9992C32.5515 32.9992 32.9992 32.5514 32.9992 31.9992C32.9992 31.4469 32.5515 30.9993 31.9992 30.9993ZM20.9978 31.8508C24.2165 33.4608 27.4337 35.0718 30.6516 36.6826C31.497 37.1057 32.5014 37.1057 33.3468 36.6826C36.5648 35.0717 39.7838 33.4609 43.0026 31.8508V41.9967C43.0026 42.5679 42.568 43.0006 41.9967 43.0006H22.0017C21.4305 43.0006 20.9978 42.5679 20.9978 41.9967V31.8508Z" fill="#A31D00"/>
</svg>
