<svg width="64" height="64" viewBox="0 0 64 64" fill="none" xmlns="http://www.w3.org/2000/svg">
<rect width="64" height="64" rx="4" fill="#80FFD9"/>
<path d="M25.2798 43.5996C27.754 43.5996 29.7598 41.5939 29.7598 39.1196C29.7598 36.6454 27.754 34.6396 25.2798 34.6396C22.8056 34.6396 20.7998 36.6454 20.7998 39.1196C20.7998 41.5939 22.8056 43.5996 25.2798 43.5996Z" stroke="#00A372" stroke-width="1.7" stroke-miterlimit="10"/>
<path d="M41.7998 29.5998H34.5998C34.1198 29.5998 33.7998 29.2798 33.7998 28.7998V21.5998C33.7998 21.1198 34.1198 20.7998 34.5998 20.7998H41.7998C42.2798 20.7998 42.5998 21.1198 42.5998 21.5998V28.7998C42.5998 29.2798 42.2798 29.5998 41.7998 29.5998Z" stroke="#00A372" stroke-width="1.7" stroke-miterlimit="10"/>
<path d="M41.7997 43.5997C41.6397 43.5997 41.4797 43.5997 41.3197 43.4397L33.9597 36.0797C33.6397 35.7597 33.6397 35.2797 33.9597 34.9597C34.2797 34.6397 34.7597 34.6397 35.0797 34.9597L42.4397 42.3197C42.7597 42.6397 42.7597 43.1197 42.4397 43.4397C42.2797 43.5997 42.1197 43.5997 41.7997 43.5997Z" fill="#00A372"/>
<path d="M34.4396 43.5997C34.5996 43.5997 34.7596 43.5997 34.9196 43.4397L42.2796 36.0797C42.5996 35.7597 42.5996 35.2797 42.2796 34.9597C41.9596 34.6397 41.4796 34.6397 41.1596 34.9597L33.7996 42.3197C33.4796 42.6397 33.4796 43.1197 33.7996 43.4397C34.1196 43.5997 34.2796 43.5997 34.4396 43.5997Z" fill="#00A372"/>
<path d="M28.9601 29.6H21.6001C20.9601 29.6 20.6401 29.12 20.8001 28.64L24.4801 21.28C24.8001 20.8 25.6001 20.8 25.7601 21.28L29.44 28.64C29.76 29.12 29.4401 29.6 28.9601 29.6Z" stroke="#00A372" stroke-width="1.7" stroke-miterlimit="10"/>
</svg>
