<svg width="64" height="64" viewBox="0 0 64 64" fill="none" xmlns="http://www.w3.org/2000/svg">
<rect width="64" height="64" rx="4" fill="#FC80FF"/>
<path d="M24.971 44.932H23.971C22.878 44.932 21.912 44.498 21.252 43.712C20.592 42.925 20.323 41.848 20.516 40.758C20.894 38.612 22.876 36.932 25.03 36.932H27.548V23.803C27.5502 23.0423 27.8403 22.3108 28.3599 21.7553C28.8795 21.1999 29.5902 20.8618 30.349 20.809L41.349 20.076C41.7586 20.0501 42.1691 20.1079 42.5556 20.246C42.9421 20.3841 43.2965 20.5994 43.597 20.879C44.201 21.444 44.548 22.243 44.548 23.07L44.538 37.439C44.537 37.659 44.526 37.877 44.485 38.107C44.107 40.252 42.125 41.932 39.971 41.932H38.971C37.878 41.932 36.912 41.498 36.252 40.712C35.592 39.925 35.323 38.848 35.516 37.758C35.894 35.612 37.876 33.932 40.03 33.932H42.548V29.07C42.548 28.79 42.436 28.53 42.231 28.339C42.1315 28.2448 42.0136 28.1725 41.8846 28.1265C41.7556 28.0805 41.6185 28.062 41.482 28.072L30.482 28.805C30.229 28.8226 29.9922 28.9353 29.8189 29.1205C29.6457 29.3056 29.5489 29.5494 29.548 29.803V40.432C29.548 40.521 29.536 40.607 29.515 40.689C29.506 40.994 29.495 41.05 29.486 41.107C29.106 43.251 27.124 44.932 24.971 44.932ZM25.029 38.932C23.857 38.932 22.692 39.927 22.484 41.106C22.394 41.62 22.501 42.088 22.784 42.427C23.057 42.752 23.479 42.932 23.971 42.932H24.971C26.143 42.932 27.308 41.937 27.516 40.758C27.513 40.756 27.527 40.465 27.536 38.932H25.029ZM40.029 35.932C38.857 35.932 37.692 36.927 37.484 38.106C37.394 38.62 37.501 39.088 37.784 39.427C38.057 39.752 38.479 39.932 38.971 39.932H39.971C41.143 39.932 42.308 38.937 42.516 37.758C42.536 37.645 42.537 37.535 42.537 37.428L42.544 35.932H40.029ZM30.48 22.805C30.227 22.8226 29.9902 22.9353 29.8169 23.1205C29.6437 23.3056 29.5469 23.5494 29.546 23.803V26.975C29.799 26.885 30.067 26.828 30.347 26.809L41.347 26.076C41.755 26.053 42.164 26.107 42.546 26.242V23.069C42.546 22.789 42.434 22.529 42.229 22.338C42.1294 22.244 42.0114 22.1718 41.8825 22.1259C41.7536 22.0799 41.6165 22.0612 41.48 22.071L30.48 22.805Z" fill="#A000A3"/>
</svg>
