<svg width="48" height="50" viewBox="0 0 48 50" fill="none" xmlns="http://www.w3.org/2000/svg">
<path d="M31.04 6.81994L25.28 2.78994C23.71 1.68994 21.3 1.74994 19.79 2.91994L14.78 6.82994C13.78 7.60994 12.99 9.20994 12.99 10.4699V17.3699C12.99 19.9199 15.06 21.9999 17.61 21.9999H28.39C30.94 21.9999 33.01 19.9299 33.01 17.3799V10.5999C33.01 9.24994 32.14 7.58994 31.04 6.81994ZM23.75 17.9999C23.75 18.4099 23.41 18.7499 23 18.7499C22.59 18.7499 22.25 18.4099 22.25 17.9999V14.9999C22.25 14.5899 22.59 14.2499 23 14.2499C23.41 14.2499 23.75 14.5899 23.75 14.9999V17.9999Z" fill="white" fill-opacity="0.87"/>
<path d="M10.424 46H9.26V37.402H10.424V46ZM12.5557 46V39.922H13.1917C13.3437 39.922 13.4397 39.996 13.4797 40.144L13.5637 40.804C13.8277 40.512 14.1217 40.276 14.4457 40.096C14.7737 39.916 15.1517 39.826 15.5797 39.826C15.9117 39.826 16.2037 39.882 16.4557 39.994C16.7117 40.102 16.9237 40.258 17.0917 40.462C17.2637 40.662 17.3937 40.904 17.4817 41.188C17.5697 41.472 17.6137 41.786 17.6137 42.13V46H16.5457V42.13C16.5457 41.67 16.4397 41.314 16.2277 41.062C16.0197 40.806 15.6997 40.678 15.2677 40.678C14.9517 40.678 14.6557 40.754 14.3797 40.906C14.1077 41.058 13.8557 41.264 13.6237 41.524V46H12.5557ZM23.5017 46C23.3497 46 23.2537 45.926 23.2137 45.778L23.1177 45.04C22.8577 45.356 22.5597 45.61 22.2237 45.802C21.8917 45.99 21.5097 46.084 21.0777 46.084C20.7297 46.084 20.4137 46.018 20.1297 45.886C19.8457 45.75 19.6037 45.552 19.4037 45.292C19.2037 45.032 19.0497 44.708 18.9417 44.32C18.8337 43.932 18.7797 43.486 18.7797 42.982C18.7797 42.534 18.8397 42.118 18.9597 41.734C19.0797 41.346 19.2517 41.01 19.4757 40.726C19.7037 40.442 19.9797 40.22 20.3037 40.06C20.6277 39.896 20.9957 39.814 21.4077 39.814C21.7797 39.814 22.0977 39.878 22.3617 40.006C22.6257 40.13 22.8617 40.306 23.0697 40.534V37.162H24.1377V46H23.5017ZM21.4317 45.22C21.7797 45.22 22.0837 45.14 22.3437 44.98C22.6077 44.82 22.8497 44.594 23.0697 44.302V41.362C22.8737 41.098 22.6577 40.914 22.4217 40.81C22.1897 40.702 21.9317 40.648 21.6477 40.648C21.0797 40.648 20.6437 40.85 20.3397 41.254C20.0357 41.658 19.8837 42.234 19.8837 42.982C19.8837 43.378 19.9177 43.718 19.9857 44.002C20.0537 44.282 20.1537 44.514 20.2857 44.698C20.4177 44.878 20.5797 45.01 20.7717 45.094C20.9637 45.178 21.1837 45.22 21.4317 45.22ZM28.3328 39.826C28.6968 39.826 29.0328 39.888 29.3408 40.012C29.6488 40.132 29.9148 40.308 30.1388 40.54C30.3628 40.768 30.5368 41.052 30.6608 41.392C30.7888 41.728 30.8528 42.112 30.8528 42.544C30.8528 42.712 30.8348 42.824 30.7988 42.88C30.7628 42.936 30.6948 42.964 30.5948 42.964H26.5508C26.5588 43.348 26.6108 43.682 26.7068 43.966C26.8028 44.25 26.9348 44.488 27.1028 44.68C27.2708 44.868 27.4708 45.01 27.7028 45.106C27.9348 45.198 28.1948 45.244 28.4828 45.244C28.7508 45.244 28.9808 45.214 29.1728 45.154C29.3688 45.09 29.5368 45.022 29.6768 44.95C29.8168 44.878 29.9328 44.812 30.0248 44.752C30.1208 44.688 30.2028 44.656 30.2708 44.656C30.3588 44.656 30.4268 44.69 30.4748 44.758L30.7748 45.148C30.6428 45.308 30.4848 45.448 30.3008 45.568C30.1168 45.684 29.9188 45.78 29.7068 45.856C29.4988 45.932 29.2828 45.988 29.0588 46.024C28.8348 46.064 28.6128 46.084 28.3928 46.084C27.9728 46.084 27.5848 46.014 27.2288 45.874C26.8768 45.73 26.5708 45.522 26.3108 45.25C26.0548 44.974 25.8548 44.634 25.7108 44.23C25.5668 43.826 25.4948 43.362 25.4948 42.838C25.4948 42.414 25.5588 42.018 25.6868 41.65C25.8188 41.282 26.0068 40.964 26.2508 40.696C26.4948 40.424 26.7928 40.212 27.1448 40.06C27.4968 39.904 27.8928 39.826 28.3328 39.826ZM28.3568 40.612C27.8408 40.612 27.4348 40.762 27.1388 41.062C26.8428 41.358 26.6588 41.77 26.5868 42.298H29.8928C29.8928 42.05 29.8588 41.824 29.7908 41.62C29.7228 41.412 29.6228 41.234 29.4908 41.086C29.3588 40.934 29.1968 40.818 29.0048 40.738C28.8168 40.654 28.6008 40.612 28.3568 40.612ZM33.2785 42.886L31.2325 39.922H32.2585C32.3465 39.922 32.4105 39.936 32.4505 39.964C32.4905 39.992 32.5265 40.032 32.5585 40.084L34.0465 42.364C34.0825 42.252 34.1345 42.14 34.2025 42.028L35.5105 40.108C35.5505 40.052 35.5905 40.008 35.6305 39.976C35.6705 39.94 35.7205 39.922 35.7805 39.922H36.7645L34.7185 42.826L36.8485 46H35.8225C35.7345 46 35.6645 45.978 35.6125 45.934C35.5645 45.886 35.5245 45.834 35.4925 45.778L33.9625 43.396C33.9345 43.512 33.8925 43.616 33.8365 43.708L32.4205 45.778C32.3805 45.834 32.3365 45.886 32.2885 45.934C32.2445 45.978 32.1825 46 32.1025 46H31.1485L33.2785 42.886Z" fill="white" fill-opacity="0.87"/>
</svg>
