<svg width="48" height="50" viewBox="0 0 48 50" fill="none" xmlns="http://www.w3.org/2000/svg">
<path d="M25 22.75C19.07 22.75 14.25 17.93 14.25 12C14.25 6.07 19.07 1.25 25 1.25C30.93 1.25 35.75 6.07 35.75 12C35.75 17.93 30.93 22.75 25 22.75ZM25 2.75C19.9 2.75 15.75 6.9 15.75 12C15.75 17.1 19.9 21.25 25 21.25C30.1 21.25 34.25 17.1 34.25 12C34.25 6.9 30.1 2.75 25 2.75Z" fill="white" fill-opacity="0.98"/>
<path d="M28.7099 15.93C28.5799 15.93 28.4499 15.9 28.3299 15.82L25.2299 13.97C24.4599 13.51 23.8899 12.5 23.8899 11.61V7.51001C23.8899 7.10001 24.2299 6.76001 24.6399 6.76001C25.0499 6.76001 25.3899 7.10001 25.3899 7.51001V11.61C25.3899 11.97 25.6899 12.5 25.9999 12.68L29.0999 14.53C29.4599 14.74 29.5699 15.2 29.3599 15.56C29.2099 15.8 28.9599 15.93 28.7099 15.93Z" fill="white" fill-opacity="0.98"/>
<path d="M12.342 37.402V38.35H8.214V41.356H11.742V42.304H8.214V46H7.044V37.402H12.342ZM15.711 39.826C16.155 39.826 16.555 39.9 16.911 40.048C17.271 40.196 17.575 40.406 17.823 40.678C18.075 40.95 18.267 41.28 18.399 41.668C18.535 42.052 18.603 42.482 18.603 42.958C18.603 43.438 18.535 43.87 18.399 44.254C18.267 44.638 18.075 44.966 17.823 45.238C17.575 45.51 17.271 45.72 16.911 45.868C16.555 46.012 16.155 46.084 15.711 46.084C15.267 46.084 14.865 46.012 14.505 45.868C14.149 45.72 13.845 45.51 13.593 45.238C13.341 44.966 13.147 44.638 13.011 44.254C12.875 43.87 12.807 43.438 12.807 42.958C12.807 42.482 12.875 42.052 13.011 41.668C13.147 41.28 13.341 40.95 13.593 40.678C13.845 40.406 14.149 40.196 14.505 40.048C14.865 39.9 15.267 39.826 15.711 39.826ZM15.711 45.25C16.311 45.25 16.759 45.05 17.055 44.65C17.351 44.246 17.499 43.684 17.499 42.964C17.499 42.24 17.351 41.676 17.055 41.272C16.759 40.868 16.311 40.666 15.711 40.666C15.407 40.666 15.143 40.718 14.919 40.822C14.695 40.926 14.507 41.076 14.355 41.272C14.207 41.468 14.095 41.71 14.019 41.998C13.947 42.282 13.911 42.604 13.911 42.964C13.911 43.324 13.947 43.646 14.019 43.93C14.095 44.214 14.207 44.454 14.355 44.65C14.507 44.842 14.695 44.99 14.919 45.094C15.143 45.198 15.407 45.25 15.711 45.25ZM24.065 41.002C24.033 41.046 24.001 41.08 23.969 41.104C23.937 41.128 23.891 41.14 23.831 41.14C23.771 41.14 23.705 41.116 23.633 41.068C23.565 41.016 23.477 40.96 23.369 40.9C23.261 40.84 23.129 40.786 22.973 40.738C22.821 40.686 22.633 40.66 22.409 40.66C22.113 40.66 21.851 40.714 21.623 40.822C21.395 40.926 21.203 41.078 21.047 41.278C20.895 41.478 20.779 41.72 20.699 42.004C20.623 42.288 20.585 42.606 20.585 42.958C20.585 43.326 20.627 43.654 20.711 43.942C20.795 44.226 20.913 44.466 21.065 44.662C21.217 44.854 21.401 45.002 21.617 45.106C21.837 45.206 22.083 45.256 22.355 45.256C22.615 45.256 22.829 45.226 22.997 45.166C23.165 45.102 23.305 45.032 23.417 44.956C23.529 44.88 23.621 44.812 23.693 44.752C23.765 44.688 23.837 44.656 23.909 44.656C24.001 44.656 24.069 44.69 24.113 44.758L24.413 45.148C24.149 45.472 23.819 45.71 23.423 45.862C23.027 46.01 22.609 46.084 22.169 46.084C21.789 46.084 21.435 46.014 21.107 45.874C20.783 45.734 20.501 45.532 20.261 45.268C20.021 45 19.831 44.672 19.691 44.284C19.555 43.896 19.487 43.454 19.487 42.958C19.487 42.506 19.549 42.088 19.673 41.704C19.801 41.32 19.985 40.99 20.225 40.714C20.469 40.434 20.769 40.216 21.125 40.06C21.481 39.904 21.889 39.826 22.349 39.826C22.773 39.826 23.149 39.896 23.477 40.036C23.805 40.172 24.095 40.366 24.347 40.618L24.065 41.002ZM26.4445 39.922V43.798C26.4445 44.258 26.5505 44.614 26.7625 44.866C26.9745 45.118 27.2945 45.244 27.7225 45.244C28.0345 45.244 28.3285 45.17 28.6045 45.022C28.8805 44.874 29.1345 44.668 29.3665 44.404V39.922H30.4345V46H29.7985C29.6465 46 29.5505 45.926 29.5105 45.778L29.4265 45.124C29.1625 45.416 28.8665 45.652 28.5385 45.832C28.2105 46.008 27.8345 46.096 27.4105 46.096C27.0785 46.096 26.7845 46.042 26.5285 45.934C26.2765 45.822 26.0645 45.666 25.8925 45.466C25.7205 45.266 25.5905 45.024 25.5025 44.74C25.4185 44.456 25.3765 44.142 25.3765 43.798V39.922H26.4445ZM35.6685 40.924C35.6205 41.012 35.5465 41.056 35.4465 41.056C35.3865 41.056 35.3185 41.034 35.2425 40.99C35.1665 40.946 35.0725 40.898 34.9605 40.846C34.8525 40.79 34.7225 40.74 34.5705 40.696C34.4185 40.648 34.2385 40.624 34.0305 40.624C33.8505 40.624 33.6885 40.648 33.5445 40.696C33.4005 40.74 33.2765 40.802 33.1725 40.882C33.0725 40.962 32.9945 41.056 32.9385 41.164C32.8865 41.268 32.8605 41.382 32.8605 41.506C32.8605 41.662 32.9045 41.792 32.9925 41.896C33.0845 42 33.2045 42.09 33.3525 42.166C33.5005 42.242 33.6685 42.31 33.8565 42.37C34.0445 42.426 34.2365 42.488 34.4325 42.556C34.6325 42.62 34.8265 42.692 35.0145 42.772C35.2025 42.852 35.3705 42.952 35.5185 43.072C35.6665 43.192 35.7845 43.34 35.8725 43.516C35.9645 43.688 36.0105 43.896 36.0105 44.14C36.0105 44.42 35.9605 44.68 35.8605 44.92C35.7605 45.156 35.6125 45.362 35.4165 45.538C35.2205 45.71 34.9805 45.846 34.6965 45.946C34.4125 46.046 34.0845 46.096 33.7125 46.096C33.2885 46.096 32.9045 46.028 32.5605 45.892C32.2165 45.752 31.9245 45.574 31.6845 45.358L31.9365 44.95C31.9685 44.898 32.0065 44.858 32.0505 44.83C32.0945 44.802 32.1525 44.788 32.2245 44.788C32.2965 44.788 32.3725 44.816 32.4525 44.872C32.5325 44.928 32.6285 44.99 32.7405 45.058C32.8565 45.126 32.9945 45.188 33.1545 45.244C33.3185 45.3 33.5225 45.328 33.7665 45.328C33.9745 45.328 34.1565 45.302 34.3125 45.25C34.4685 45.194 34.5985 45.12 34.7025 45.028C34.8065 44.936 34.8825 44.83 34.9305 44.71C34.9825 44.59 35.0085 44.462 35.0085 44.326C35.0085 44.158 34.9625 44.02 34.8705 43.912C34.7825 43.8 34.6645 43.706 34.5165 43.63C34.3685 43.55 34.1985 43.482 34.0065 43.426C33.8185 43.366 33.6245 43.304 33.4245 43.24C33.2285 43.176 33.0345 43.104 32.8425 43.024C32.6545 42.94 32.4865 42.836 32.3385 42.712C32.1905 42.588 32.0705 42.436 31.9785 42.256C31.8905 42.072 31.8465 41.85 31.8465 41.59C31.8465 41.358 31.8945 41.136 31.9905 40.924C32.0865 40.708 32.2265 40.52 32.4105 40.36C32.5945 40.196 32.8205 40.066 33.0885 39.97C33.3565 39.874 33.6625 39.826 34.0065 39.826C34.4065 39.826 34.7645 39.89 35.0805 40.018C35.4005 40.142 35.6765 40.314 35.9085 40.534L35.6685 40.924ZM39.7976 39.826C40.1616 39.826 40.4976 39.888 40.8056 40.012C41.1136 40.132 41.3796 40.308 41.6036 40.54C41.8276 40.768 42.0016 41.052 42.1256 41.392C42.2536 41.728 42.3176 42.112 42.3176 42.544C42.3176 42.712 42.2996 42.824 42.2636 42.88C42.2276 42.936 42.1596 42.964 42.0596 42.964H38.0156C38.0236 43.348 38.0756 43.682 38.1716 43.966C38.2676 44.25 38.3996 44.488 38.5676 44.68C38.7356 44.868 38.9356 45.01 39.1676 45.106C39.3996 45.198 39.6596 45.244 39.9476 45.244C40.2156 45.244 40.4456 45.214 40.6376 45.154C40.8336 45.09 41.0016 45.022 41.1416 44.95C41.2816 44.878 41.3976 44.812 41.4896 44.752C41.5856 44.688 41.6676 44.656 41.7356 44.656C41.8236 44.656 41.8916 44.69 41.9396 44.758L42.2396 45.148C42.1076 45.308 41.9496 45.448 41.7656 45.568C41.5816 45.684 41.3836 45.78 41.1716 45.856C40.9636 45.932 40.7476 45.988 40.5236 46.024C40.2996 46.064 40.0776 46.084 39.8576 46.084C39.4376 46.084 39.0496 46.014 38.6936 45.874C38.3416 45.73 38.0356 45.522 37.7756 45.25C37.5196 44.974 37.3196 44.634 37.1756 44.23C37.0316 43.826 36.9596 43.362 36.9596 42.838C36.9596 42.414 37.0236 42.018 37.1516 41.65C37.2836 41.282 37.4716 40.964 37.7156 40.696C37.9596 40.424 38.2576 40.212 38.6096 40.06C38.9616 39.904 39.3576 39.826 39.7976 39.826ZM39.8216 40.612C39.3056 40.612 38.8996 40.762 38.6036 41.062C38.3076 41.358 38.1236 41.77 38.0516 42.298H41.3576C41.3576 42.05 41.3236 41.824 41.2556 41.62C41.1876 41.412 41.0876 41.234 40.9556 41.086C40.8236 40.934 40.6616 40.818 40.4696 40.738C40.2816 40.654 40.0656 40.612 39.8216 40.612Z" fill="white" fill-opacity="0.98"/>
</svg>
