<svg width="64" height="64" viewBox="0 0 64 64" fill="none" xmlns="http://www.w3.org/2000/svg">
<rect width="64" height="64" rx="4" fill="#80FFFF"/>
<g clip-path="url(#clip0_2_13401)">
<path d="M41.3333 22.6693H38.6667C37.196 22.6693 36 23.8653 36 25.336V29.336H28V25.336C28 23.8653 26.804 22.6693 25.3333 22.6693H22.6667C21.196 22.6693 20 23.8653 20 25.336V36.0026C20 37.4733 21.196 38.6693 22.6667 38.6693H25.3333C26.804 38.6693 28 37.4733 28 36.0026V32.0026H36V36.0026C36 37.4733 37.196 38.6693 38.6667 38.6693H41.3333C42.804 38.6693 44 37.4733 44 36.0026V25.336C44 23.8653 42.804 22.6693 41.3333 22.6693ZM22.6667 36.0026V25.336H25.3333L25.3347 36.0026H22.6667ZM38.6667 36.0026V25.336H41.3333L41.3347 36.0026H38.6667ZM45.3333 28.0026H48V33.336H45.3333V28.0026ZM16 28.0026H18.6667V33.336H16V28.0026Z" fill="#00A32F"/>
</g>
<defs>
<clipPath id="clip0_2_13401">
<rect width="32" height="32.0027" fill="white" transform="translate(16 16)"/>
</clipPath>
</defs>
</svg>
