<svg width="64" height="64" viewBox="0 0 64 64" fill="none" xmlns="http://www.w3.org/2000/svg">
<rect width="64" height="64" rx="4" fill="#80FFD1"/>
<g clip-path="url(#clip0_2_13419)">
<path d="M18.4375 33.9375H30.0625V45.5625C30.0625 46.631 30.9315 47.5 32 47.5C33.0685 47.5 33.9375 46.631 33.9375 45.5625V33.9375H45.5625C46.631 33.9375 47.5 33.0685 47.5 32C47.5 30.9315 46.631 30.0625 45.5625 30.0625H33.9375V18.4375C33.9375 17.369 33.0685 16.5 32 16.5C30.9315 16.5 30.0625 17.369 30.0625 18.4375V30.0625H18.4375C17.369 30.0625 16.5 30.9315 16.5 32C16.5 33.0685 17.369 33.9375 18.4375 33.9375Z" fill="#00A369"/>
</g>
<defs>
<clipPath id="clip0_2_13419">
<rect width="32" height="32" fill="white" transform="translate(16 16)"/>
</clipPath>
</defs>
</svg>
