<svg width="64" height="64" viewBox="0 0 64 64" fill="none" xmlns="http://www.w3.org/2000/svg">
<rect width="64" height="64" rx="4" fill="#80D1FF"/>
<path d="M44.7067 25.5333C44.5041 25.4163 44.2741 25.3547 44.0401 25.3547C43.806 25.3547 43.5761 25.4163 43.3734 25.5333L38.6667 27.8533C38.6288 26.8181 38.1906 25.838 37.4446 25.1193C36.6985 24.4005 35.7027 23.9993 34.6667 24H22.6667C21.6059 24 20.5885 24.4214 19.8383 25.1716C19.0882 25.9217 18.6667 26.9391 18.6667 28V36C18.6667 37.0609 19.0882 38.0783 19.8383 38.8284C20.5885 39.5786 21.6059 40 22.6667 40H34.6667C35.7027 40.0007 36.6985 39.5995 37.4446 38.8807C38.1906 38.162 38.6288 37.1819 38.6667 36.1467L43.4134 38.52C43.5952 38.6132 43.7959 38.6634 44.0001 38.6667C44.2497 38.6675 44.4946 38.5982 44.7067 38.4667C44.8989 38.3466 45.0573 38.1795 45.1669 37.9812C45.2766 37.7829 45.3339 37.5599 45.3334 37.3333V26.6667C45.3339 26.4401 45.2766 26.2171 45.1669 26.0188C45.0573 25.8205 44.8989 25.6534 44.7067 25.5333ZM36.0001 36C36.0001 36.3536 35.8596 36.6928 35.6096 36.9428C35.3595 37.1929 35.0204 37.3333 34.6667 37.3333H22.6667C22.3131 37.3333 21.974 37.1929 21.7239 36.9428C21.4739 36.6928 21.3334 36.3536 21.3334 36V28C21.3334 27.6464 21.4739 27.3072 21.7239 27.0572C21.974 26.8071 22.3131 26.6667 22.6667 26.6667H34.6667C35.0204 26.6667 35.3595 26.8071 35.6096 27.0572C35.8596 27.3072 36.0001 27.6464 36.0001 28V36ZM42.6667 35.1733L38.6667 33.1733V30.8267L42.6667 28.8267V35.1733Z" fill="#0069A3"/>
</svg>
