<svg width="64" height="64" viewBox="0 0 64 64" fill="none" xmlns="http://www.w3.org/2000/svg">
<rect width="64" height="64" rx="4" fill="#CCFF80"/>
<path d="M38.9999 22C40.6999 24.3 37.1999 24.3 38.9999 27M31.9999 43C45.4999 43 45.1999 41.2 44.8999 37.4C44.5999 33.2 39.9999 30 31.9999 30C23.9999 30 19.3999 33.2 19.0999 37.4C18.7999 41.2 18.4999 43 31.9999 43ZM31.9999 35C31.9999 33.5 32.0999 31.8 32.9999 30L31.9999 35ZM25.9999 35C25.9999 33.5 26.0999 32.4 26.9999 30.7L25.9999 35ZM37.9999 35C37.9999 33.7 38.0999 32.6 38.7999 31.1L37.9999 35ZM31.9999 21C33.6999 23.3 30.1999 23.3 31.9999 26V21ZM24.9999 22C26.6999 24.3 23.1999 24.3 24.9999 27V22Z" stroke="#21A300" stroke-width="2" stroke-miterlimit="10" stroke-linecap="round" stroke-linejoin="round"/>
</svg>
